<mxfile host="Electron" modified="2023-10-30T17:27:12.733Z" agent="Mozilla/5.0 (Windows NT 10.0; Win64; x64) AppleWebKit/537.36 (KHTML, like Gecko) draw.io/22.0.3 Chrome/114.0.5735.289 Electron/25.8.4 Safari/537.36" etag="zsLGROX3RMasT2gUh1vh" version="22.0.3" type="device">
  <diagram id="C5RBs43oDa-KdzZeNtuy" name="Page-1">
    <mxGraphModel dx="2033" dy="1978" grid="1" gridSize="10" guides="1" tooltips="1" connect="1" arrows="1" fold="1" page="1" pageScale="1" pageWidth="827" pageHeight="1169" math="0" shadow="0">
      <root>
        <mxCell id="WIyWlLk6GJQsqaUBKTNV-0" />
        <mxCell id="WIyWlLk6GJQsqaUBKTNV-1" parent="WIyWlLk6GJQsqaUBKTNV-0" />
        <mxCell id="zkfFHV4jXpPFQw0GAbJ--0" value="Kunde" style="swimlane;fontStyle=2;align=center;verticalAlign=top;childLayout=stackLayout;horizontal=1;startSize=26;horizontalStack=0;resizeParent=1;resizeLast=0;collapsible=1;marginBottom=0;rounded=0;shadow=0;strokeWidth=1;" parent="WIyWlLk6GJQsqaUBKTNV-1" vertex="1">
          <mxGeometry x="250" y="-80" width="160" height="140" as="geometry">
            <mxRectangle x="230" y="140" width="160" height="26" as="alternateBounds" />
          </mxGeometry>
        </mxCell>
        <mxCell id="zkfFHV4jXpPFQw0GAbJ--4" value="" style="line;html=1;strokeWidth=1;align=left;verticalAlign=middle;spacingTop=-1;spacingLeft=3;spacingRight=3;rotatable=0;labelPosition=right;points=[];portConstraint=eastwest;" parent="zkfFHV4jXpPFQw0GAbJ--0" vertex="1">
          <mxGeometry y="26" width="160" height="8" as="geometry" />
        </mxCell>
        <mxCell id="zkfFHV4jXpPFQw0GAbJ--5" value="ID {ID}&#xa;Name &#xa;Adresse &#xa;Ticket &#xa;Sitzplatzreservierungen" style="text;align=left;verticalAlign=top;spacingLeft=4;spacingRight=4;overflow=hidden;rotatable=0;points=[[0,0.5],[1,0.5]];portConstraint=eastwest;" parent="zkfFHV4jXpPFQw0GAbJ--0" vertex="1">
          <mxGeometry y="34" width="160" height="106" as="geometry" />
        </mxCell>
        <mxCell id="jxzHC8kVpNvv-Q7-szGA-0" value="Administrator " style="swimlane;fontStyle=2;align=center;verticalAlign=top;childLayout=stackLayout;horizontal=1;startSize=26;horizontalStack=0;resizeParent=1;resizeLast=0;collapsible=1;marginBottom=0;rounded=0;shadow=0;strokeWidth=1;" parent="WIyWlLk6GJQsqaUBKTNV-1" vertex="1">
          <mxGeometry x="575" y="-78" width="160" height="138" as="geometry">
            <mxRectangle x="230" y="140" width="160" height="26" as="alternateBounds" />
          </mxGeometry>
        </mxCell>
        <mxCell id="jxzHC8kVpNvv-Q7-szGA-1" value="" style="line;html=1;strokeWidth=1;align=left;verticalAlign=middle;spacingTop=-1;spacingLeft=3;spacingRight=3;rotatable=0;labelPosition=right;points=[];portConstraint=eastwest;" parent="jxzHC8kVpNvv-Q7-szGA-0" vertex="1">
          <mxGeometry y="26" width="160" height="8" as="geometry" />
        </mxCell>
        <mxCell id="F_HFYUeaaF8_5w_vxrB_-30" value="ID{ID}&lt;br&gt;Name&lt;br&gt;Adresse&lt;br&gt;" style="text;html=1;strokeColor=none;fillColor=none;align=center;verticalAlign=middle;whiteSpace=wrap;rounded=0;" vertex="1" parent="jxzHC8kVpNvv-Q7-szGA-0">
          <mxGeometry y="34" width="160" height="30" as="geometry" />
        </mxCell>
        <mxCell id="jxzHC8kVpNvv-Q7-szGA-3" value="Strecke" style="swimlane;fontStyle=2;align=center;verticalAlign=top;childLayout=stackLayout;horizontal=1;startSize=26;horizontalStack=0;resizeParent=1;resizeLast=0;collapsible=1;marginBottom=0;rounded=0;shadow=0;strokeWidth=1;" parent="WIyWlLk6GJQsqaUBKTNV-1" vertex="1">
          <mxGeometry x="-40" y="360" width="160" height="138" as="geometry">
            <mxRectangle x="230" y="140" width="160" height="26" as="alternateBounds" />
          </mxGeometry>
        </mxCell>
        <mxCell id="jxzHC8kVpNvv-Q7-szGA-4" value="" style="line;html=1;strokeWidth=1;align=left;verticalAlign=middle;spacingTop=-1;spacingLeft=3;spacingRight=3;rotatable=0;labelPosition=right;points=[];portConstraint=eastwest;" parent="jxzHC8kVpNvv-Q7-szGA-3" vertex="1">
          <mxGeometry y="26" width="160" height="8" as="geometry" />
        </mxCell>
        <mxCell id="jxzHC8kVpNvv-Q7-szGA-5" value="ID {ID}&lt;br&gt;Startbahnhof&amp;nbsp;&lt;br&gt;&lt;div style=&quot;&quot;&gt;&lt;span style=&quot;background-color: initial;&quot;&gt;Endbahnhof&lt;/span&gt;&lt;/div&gt;Stopps&lt;br&gt;Datum" style="text;html=1;align=left;verticalAlign=middle;resizable=0;points=[];autosize=1;strokeColor=none;fillColor=none;" parent="jxzHC8kVpNvv-Q7-szGA-3" vertex="1">
          <mxGeometry y="34" width="160" height="90" as="geometry" />
        </mxCell>
        <mxCell id="jxzHC8kVpNvv-Q7-szGA-6" value="Teilstrecke" style="swimlane;fontStyle=2;align=center;verticalAlign=top;childLayout=stackLayout;horizontal=1;startSize=26;horizontalStack=0;resizeParent=1;resizeLast=0;collapsible=1;marginBottom=0;rounded=0;shadow=0;strokeWidth=1;" parent="WIyWlLk6GJQsqaUBKTNV-1" vertex="1">
          <mxGeometry x="210" y="540" width="180" height="138" as="geometry">
            <mxRectangle x="230" y="140" width="160" height="26" as="alternateBounds" />
          </mxGeometry>
        </mxCell>
        <mxCell id="jxzHC8kVpNvv-Q7-szGA-7" value="" style="line;html=1;strokeWidth=1;align=left;verticalAlign=middle;spacingTop=-1;spacingLeft=3;spacingRight=3;rotatable=0;labelPosition=right;points=[];portConstraint=eastwest;" parent="jxzHC8kVpNvv-Q7-szGA-6" vertex="1">
          <mxGeometry y="26" width="180" height="8" as="geometry" />
        </mxCell>
        <mxCell id="jxzHC8kVpNvv-Q7-szGA-8" value="ID {ID}&lt;br&gt;Startbahnhof (Teil von Stopps)&lt;br&gt;Endbahnhof (Teil von Stopps)&lt;br&gt;Stopps&lt;br&gt;Datum" style="text;html=1;align=left;verticalAlign=middle;resizable=0;points=[];autosize=1;strokeColor=none;fillColor=none;" parent="jxzHC8kVpNvv-Q7-szGA-6" vertex="1">
          <mxGeometry y="34" width="180" height="90" as="geometry" />
        </mxCell>
        <mxCell id="jxzHC8kVpNvv-Q7-szGA-12" value="Ticket" style="swimlane;fontStyle=2;align=center;verticalAlign=top;childLayout=stackLayout;horizontal=1;startSize=26;horizontalStack=0;resizeParent=1;resizeLast=0;collapsible=1;marginBottom=0;rounded=0;shadow=0;strokeWidth=1;" parent="WIyWlLk6GJQsqaUBKTNV-1" vertex="1">
          <mxGeometry x="160" y="170" width="160" height="138" as="geometry">
            <mxRectangle x="230" y="140" width="160" height="26" as="alternateBounds" />
          </mxGeometry>
        </mxCell>
        <mxCell id="jxzHC8kVpNvv-Q7-szGA-13" value="" style="line;html=1;strokeWidth=1;align=left;verticalAlign=middle;spacingTop=-1;spacingLeft=3;spacingRight=3;rotatable=0;labelPosition=right;points=[];portConstraint=eastwest;" parent="jxzHC8kVpNvv-Q7-szGA-12" vertex="1">
          <mxGeometry y="26" width="160" height="8" as="geometry" />
        </mxCell>
        <mxCell id="jxzHC8kVpNvv-Q7-szGA-14" value="ID {ID}&lt;br&gt;Status&lt;br&gt;Startbahnhof&lt;br&gt;Endbahnhof&lt;br&gt;Preis&amp;nbsp;&lt;br&gt;Datum" style="text;html=1;align=center;verticalAlign=middle;resizable=0;points=[];autosize=1;strokeColor=none;fillColor=none;" parent="jxzHC8kVpNvv-Q7-szGA-12" vertex="1">
          <mxGeometry y="34" width="160" height="100" as="geometry" />
        </mxCell>
        <mxCell id="jxzHC8kVpNvv-Q7-szGA-15" value="Aktion" style="swimlane;fontStyle=2;align=center;verticalAlign=top;childLayout=stackLayout;horizontal=1;startSize=26;horizontalStack=0;resizeParent=1;resizeLast=0;collapsible=1;marginBottom=0;rounded=0;shadow=0;strokeWidth=1;" parent="WIyWlLk6GJQsqaUBKTNV-1" vertex="1">
          <mxGeometry x="780" y="170" width="160" height="138" as="geometry">
            <mxRectangle x="230" y="140" width="160" height="26" as="alternateBounds" />
          </mxGeometry>
        </mxCell>
        <mxCell id="jxzHC8kVpNvv-Q7-szGA-16" value="" style="line;html=1;strokeWidth=1;align=left;verticalAlign=middle;spacingTop=-1;spacingLeft=3;spacingRight=3;rotatable=0;labelPosition=right;points=[];portConstraint=eastwest;" parent="jxzHC8kVpNvv-Q7-szGA-15" vertex="1">
          <mxGeometry y="26" width="160" height="8" as="geometry" />
        </mxCell>
        <mxCell id="jxzHC8kVpNvv-Q7-szGA-20" value="ID {ID}&lt;br&gt;Prozent&lt;br&gt;Strecke" style="text;html=1;align=center;verticalAlign=middle;resizable=0;points=[];autosize=1;strokeColor=none;fillColor=none;" parent="jxzHC8kVpNvv-Q7-szGA-15" vertex="1">
          <mxGeometry y="34" width="160" height="60" as="geometry" />
        </mxCell>
        <mxCell id="jxzHC8kVpNvv-Q7-szGA-17" value="Suche" style="swimlane;fontStyle=2;align=center;verticalAlign=top;childLayout=stackLayout;horizontal=1;startSize=26;horizontalStack=0;resizeParent=1;resizeLast=0;collapsible=1;marginBottom=0;rounded=0;shadow=0;strokeWidth=1;" parent="WIyWlLk6GJQsqaUBKTNV-1" vertex="1">
          <mxGeometry x="360" y="170" width="160" height="138" as="geometry">
            <mxRectangle x="230" y="140" width="160" height="26" as="alternateBounds" />
          </mxGeometry>
        </mxCell>
        <mxCell id="jxzHC8kVpNvv-Q7-szGA-18" value="" style="line;html=1;strokeWidth=1;align=left;verticalAlign=middle;spacingTop=-1;spacingLeft=3;spacingRight=3;rotatable=0;labelPosition=right;points=[];portConstraint=eastwest;" parent="jxzHC8kVpNvv-Q7-szGA-17" vertex="1">
          <mxGeometry y="26" width="160" height="8" as="geometry" />
        </mxCell>
        <mxCell id="jxzHC8kVpNvv-Q7-szGA-19" value="ID {ID}&lt;br&gt;Startbahnhof&amp;nbsp;&lt;br&gt;&lt;div style=&quot;&quot;&gt;&lt;span style=&quot;background-color: initial;&quot;&gt;Endbahnhof&lt;/span&gt;&lt;/div&gt;Stopps&lt;br&gt;Datum&lt;br&gt;Strecke" style="text;html=1;align=left;verticalAlign=middle;resizable=0;points=[];autosize=1;strokeColor=none;fillColor=none;" parent="jxzHC8kVpNvv-Q7-szGA-17" vertex="1">
          <mxGeometry y="34" width="160" height="100" as="geometry" />
        </mxCell>
        <mxCell id="jxzHC8kVpNvv-Q7-szGA-21" value="Allgemeine Aktion" style="swimlane;fontStyle=2;align=center;verticalAlign=top;childLayout=stackLayout;horizontal=1;startSize=26;horizontalStack=0;resizeParent=1;resizeLast=0;collapsible=1;marginBottom=0;rounded=0;shadow=0;strokeWidth=1;" parent="WIyWlLk6GJQsqaUBKTNV-1" vertex="1">
          <mxGeometry x="590" y="170" width="160" height="138" as="geometry">
            <mxRectangle x="230" y="140" width="160" height="26" as="alternateBounds" />
          </mxGeometry>
        </mxCell>
        <mxCell id="jxzHC8kVpNvv-Q7-szGA-22" value="" style="line;html=1;strokeWidth=1;align=left;verticalAlign=middle;spacingTop=-1;spacingLeft=3;spacingRight=3;rotatable=0;labelPosition=right;points=[];portConstraint=eastwest;" parent="jxzHC8kVpNvv-Q7-szGA-21" vertex="1">
          <mxGeometry y="26" width="160" height="8" as="geometry" />
        </mxCell>
        <mxCell id="F_HFYUeaaF8_5w_vxrB_-35" value="ID {ID}&lt;br&gt;Prozent&amp;nbsp;" style="text;html=1;strokeColor=none;fillColor=none;align=center;verticalAlign=middle;whiteSpace=wrap;rounded=0;" vertex="1" parent="jxzHC8kVpNvv-Q7-szGA-21">
          <mxGeometry y="34" width="160" height="30" as="geometry" />
        </mxCell>
        <mxCell id="F_HFYUeaaF8_5w_vxrB_-0" value="Stitzplatzreservierung" style="swimlane;fontStyle=2;align=center;verticalAlign=top;childLayout=stackLayout;horizontal=1;startSize=26;horizontalStack=0;resizeParent=1;resizeLast=0;collapsible=1;marginBottom=0;rounded=0;shadow=0;strokeWidth=1;" vertex="1" parent="WIyWlLk6GJQsqaUBKTNV-1">
          <mxGeometry x="-40" y="-38" width="160" height="138" as="geometry">
            <mxRectangle x="230" y="140" width="160" height="26" as="alternateBounds" />
          </mxGeometry>
        </mxCell>
        <mxCell id="F_HFYUeaaF8_5w_vxrB_-1" value="" style="line;html=1;strokeWidth=1;align=left;verticalAlign=middle;spacingTop=-1;spacingLeft=3;spacingRight=3;rotatable=0;labelPosition=right;points=[];portConstraint=eastwest;" vertex="1" parent="F_HFYUeaaF8_5w_vxrB_-0">
          <mxGeometry y="26" width="160" height="8" as="geometry" />
        </mxCell>
        <mxCell id="F_HFYUeaaF8_5w_vxrB_-3" value="ID {ID}&lt;br&gt;Strecke&amp;nbsp;&amp;nbsp;&lt;br&gt;Datum&amp;nbsp;" style="text;html=1;align=center;verticalAlign=middle;resizable=0;points=[];autosize=1;strokeColor=none;fillColor=none;" vertex="1" parent="F_HFYUeaaF8_5w_vxrB_-0">
          <mxGeometry y="34" width="160" height="60" as="geometry" />
        </mxCell>
        <mxCell id="F_HFYUeaaF8_5w_vxrB_-4" value="hat" style="text;html=1;strokeColor=none;fillColor=none;align=center;verticalAlign=middle;whiteSpace=wrap;rounded=0;" vertex="1" parent="WIyWlLk6GJQsqaUBKTNV-1">
          <mxGeometry x="220" y="390" width="60" height="30" as="geometry" />
        </mxCell>
        <mxCell id="F_HFYUeaaF8_5w_vxrB_-5" value="*" style="text;html=1;strokeColor=none;fillColor=none;align=center;verticalAlign=middle;whiteSpace=wrap;rounded=0;" vertex="1" parent="WIyWlLk6GJQsqaUBKTNV-1">
          <mxGeometry x="120" y="390" width="60" height="30" as="geometry" />
        </mxCell>
        <mxCell id="F_HFYUeaaF8_5w_vxrB_-6" value="*" style="text;html=1;strokeColor=none;fillColor=none;align=center;verticalAlign=middle;whiteSpace=wrap;rounded=0;" vertex="1" parent="WIyWlLk6GJQsqaUBKTNV-1">
          <mxGeometry x="300" y="510" width="60" height="30" as="geometry" />
        </mxCell>
        <mxCell id="F_HFYUeaaF8_5w_vxrB_-8" value="" style="endArrow=classic;html=1;rounded=0;entryX=0;entryY=1;entryDx=0;entryDy=0;exitX=0.391;exitY=0.012;exitDx=0;exitDy=0;exitPerimeter=0;" edge="1" parent="WIyWlLk6GJQsqaUBKTNV-1" source="jxzHC8kVpNvv-Q7-szGA-6" target="F_HFYUeaaF8_5w_vxrB_-5">
          <mxGeometry width="50" height="50" relative="1" as="geometry">
            <mxPoint x="280" y="530" as="sourcePoint" />
            <mxPoint x="440" y="170" as="targetPoint" />
            <Array as="points">
              <mxPoint x="280" y="420" />
            </Array>
          </mxGeometry>
        </mxCell>
        <mxCell id="F_HFYUeaaF8_5w_vxrB_-10" value="" style="endArrow=classic;html=1;rounded=0;exitX=0.019;exitY=0.403;exitDx=0;exitDy=0;exitPerimeter=0;entryX=0.5;entryY=0;entryDx=0;entryDy=0;" edge="1" parent="WIyWlLk6GJQsqaUBKTNV-1" source="jxzHC8kVpNvv-Q7-szGA-14" target="jxzHC8kVpNvv-Q7-szGA-3">
          <mxGeometry width="50" height="50" relative="1" as="geometry">
            <mxPoint x="390" y="220" as="sourcePoint" />
            <mxPoint x="440" y="170" as="targetPoint" />
            <Array as="points">
              <mxPoint x="140" y="243" />
              <mxPoint x="40" y="243" />
            </Array>
          </mxGeometry>
        </mxCell>
        <mxCell id="F_HFYUeaaF8_5w_vxrB_-11" value="hat" style="text;html=1;strokeColor=none;fillColor=none;align=center;verticalAlign=middle;whiteSpace=wrap;rounded=0;" vertex="1" parent="WIyWlLk6GJQsqaUBKTNV-1">
          <mxGeometry x="-20" y="220" width="60" height="30" as="geometry" />
        </mxCell>
        <mxCell id="F_HFYUeaaF8_5w_vxrB_-12" value="1" style="text;html=1;strokeColor=none;fillColor=none;align=center;verticalAlign=middle;whiteSpace=wrap;rounded=0;" vertex="1" parent="WIyWlLk6GJQsqaUBKTNV-1">
          <mxGeometry x="90" y="200" width="60" height="30" as="geometry" />
        </mxCell>
        <mxCell id="F_HFYUeaaF8_5w_vxrB_-13" value="1" style="text;html=1;strokeColor=none;fillColor=none;align=center;verticalAlign=middle;whiteSpace=wrap;rounded=0;" vertex="1" parent="WIyWlLk6GJQsqaUBKTNV-1">
          <mxGeometry x="-40" y="320" width="60" height="30" as="geometry" />
        </mxCell>
        <mxCell id="F_HFYUeaaF8_5w_vxrB_-14" value="" style="endArrow=classic;html=1;rounded=0;exitX=-0.006;exitY=0.176;exitDx=0;exitDy=0;exitPerimeter=0;entryX=0.5;entryY=1;entryDx=0;entryDy=0;" edge="1" parent="WIyWlLk6GJQsqaUBKTNV-1" source="jxzHC8kVpNvv-Q7-szGA-12" target="F_HFYUeaaF8_5w_vxrB_-0">
          <mxGeometry width="50" height="50" relative="1" as="geometry">
            <mxPoint x="390" y="220" as="sourcePoint" />
            <mxPoint x="440" y="170" as="targetPoint" />
            <Array as="points">
              <mxPoint x="40" y="194" />
            </Array>
          </mxGeometry>
        </mxCell>
        <mxCell id="F_HFYUeaaF8_5w_vxrB_-15" value="0 .. 1" style="text;html=1;strokeColor=none;fillColor=none;align=center;verticalAlign=middle;whiteSpace=wrap;rounded=0;" vertex="1" parent="WIyWlLk6GJQsqaUBKTNV-1">
          <mxGeometry x="30" y="110" width="60" height="30" as="geometry" />
        </mxCell>
        <mxCell id="F_HFYUeaaF8_5w_vxrB_-16" value="" style="endArrow=classic;html=1;rounded=0;exitX=0.75;exitY=0;exitDx=0;exitDy=0;entryX=0.19;entryY=0.984;entryDx=0;entryDy=0;entryPerimeter=0;" edge="1" parent="WIyWlLk6GJQsqaUBKTNV-1" source="jxzHC8kVpNvv-Q7-szGA-12" target="zkfFHV4jXpPFQw0GAbJ--5">
          <mxGeometry width="50" height="50" relative="1" as="geometry">
            <mxPoint x="390" y="220" as="sourcePoint" />
            <mxPoint x="440" y="170" as="targetPoint" />
          </mxGeometry>
        </mxCell>
        <mxCell id="F_HFYUeaaF8_5w_vxrB_-17" value="hat" style="text;html=1;strokeColor=none;fillColor=none;align=center;verticalAlign=middle;whiteSpace=wrap;rounded=0;" vertex="1" parent="WIyWlLk6GJQsqaUBKTNV-1">
          <mxGeometry x="50" y="160" width="60" height="30" as="geometry" />
        </mxCell>
        <mxCell id="F_HFYUeaaF8_5w_vxrB_-18" value="hat" style="text;html=1;strokeColor=none;fillColor=none;align=center;verticalAlign=middle;whiteSpace=wrap;rounded=0;" vertex="1" parent="WIyWlLk6GJQsqaUBKTNV-1">
          <mxGeometry x="290" y="110" width="60" height="30" as="geometry" />
        </mxCell>
        <mxCell id="F_HFYUeaaF8_5w_vxrB_-19" value="1" style="text;html=1;strokeColor=none;fillColor=none;align=center;verticalAlign=middle;whiteSpace=wrap;rounded=0;" vertex="1" parent="WIyWlLk6GJQsqaUBKTNV-1">
          <mxGeometry x="290" y="66" width="60" height="30" as="geometry" />
        </mxCell>
        <mxCell id="F_HFYUeaaF8_5w_vxrB_-20" value="*" style="text;html=1;strokeColor=none;fillColor=none;align=center;verticalAlign=middle;whiteSpace=wrap;rounded=0;" vertex="1" parent="WIyWlLk6GJQsqaUBKTNV-1">
          <mxGeometry x="290" y="140" width="60" height="30" as="geometry" />
        </mxCell>
        <mxCell id="F_HFYUeaaF8_5w_vxrB_-21" value="" style="endArrow=classic;html=1;rounded=0;exitX=0.781;exitY=1.028;exitDx=0;exitDy=0;exitPerimeter=0;entryX=0.098;entryY=0.002;entryDx=0;entryDy=0;entryPerimeter=0;" edge="1" parent="WIyWlLk6GJQsqaUBKTNV-1" source="zkfFHV4jXpPFQw0GAbJ--5" target="jxzHC8kVpNvv-Q7-szGA-17">
          <mxGeometry width="50" height="50" relative="1" as="geometry">
            <mxPoint x="390" y="290" as="sourcePoint" />
            <mxPoint x="440" y="240" as="targetPoint" />
          </mxGeometry>
        </mxCell>
        <mxCell id="F_HFYUeaaF8_5w_vxrB_-22" value="kann" style="text;html=1;strokeColor=none;fillColor=none;align=center;verticalAlign=middle;whiteSpace=wrap;rounded=0;" vertex="1" parent="WIyWlLk6GJQsqaUBKTNV-1">
          <mxGeometry x="390" y="100" width="60" height="30" as="geometry" />
        </mxCell>
        <mxCell id="F_HFYUeaaF8_5w_vxrB_-23" value="Text" style="text;html=1;strokeColor=none;fillColor=none;align=center;verticalAlign=middle;whiteSpace=wrap;rounded=0;" vertex="1" parent="WIyWlLk6GJQsqaUBKTNV-1">
          <mxGeometry x="380" y="250" width="60" height="30" as="geometry" />
        </mxCell>
        <mxCell id="F_HFYUeaaF8_5w_vxrB_-24" value="*" style="text;html=1;strokeColor=none;fillColor=none;align=center;verticalAlign=middle;whiteSpace=wrap;rounded=0;" vertex="1" parent="WIyWlLk6GJQsqaUBKTNV-1">
          <mxGeometry x="380" y="66" width="60" height="30" as="geometry" />
        </mxCell>
        <mxCell id="F_HFYUeaaF8_5w_vxrB_-25" value="&amp;nbsp;*" style="text;html=1;strokeColor=none;fillColor=none;align=center;verticalAlign=middle;whiteSpace=wrap;rounded=0;" vertex="1" parent="WIyWlLk6GJQsqaUBKTNV-1">
          <mxGeometry x="384" y="140" width="60" height="30" as="geometry" />
        </mxCell>
        <mxCell id="F_HFYUeaaF8_5w_vxrB_-26" value="" style="endArrow=classic;html=1;rounded=0;exitX=0.25;exitY=1;exitDx=0;exitDy=0;entryX=0.998;entryY=0.171;entryDx=0;entryDy=0;entryPerimeter=0;" edge="1" parent="WIyWlLk6GJQsqaUBKTNV-1" source="jxzHC8kVpNvv-Q7-szGA-17" target="jxzHC8kVpNvv-Q7-szGA-3">
          <mxGeometry width="50" height="50" relative="1" as="geometry">
            <mxPoint x="390" y="290" as="sourcePoint" />
            <mxPoint x="340" y="350" as="targetPoint" />
            <Array as="points">
              <mxPoint x="400" y="380" />
            </Array>
          </mxGeometry>
        </mxCell>
        <mxCell id="F_HFYUeaaF8_5w_vxrB_-27" value="*" style="text;html=1;strokeColor=none;fillColor=none;align=center;verticalAlign=middle;whiteSpace=wrap;rounded=0;" vertex="1" parent="WIyWlLk6GJQsqaUBKTNV-1">
          <mxGeometry x="400" y="320" width="60" height="30" as="geometry" />
        </mxCell>
        <mxCell id="F_HFYUeaaF8_5w_vxrB_-28" value="*" style="text;html=1;strokeColor=none;fillColor=none;align=center;verticalAlign=middle;whiteSpace=wrap;rounded=0;" vertex="1" parent="WIyWlLk6GJQsqaUBKTNV-1">
          <mxGeometry x="120" y="350" width="60" height="30" as="geometry" />
        </mxCell>
        <mxCell id="F_HFYUeaaF8_5w_vxrB_-29" value="sucht" style="text;html=1;strokeColor=none;fillColor=none;align=center;verticalAlign=middle;whiteSpace=wrap;rounded=0;" vertex="1" parent="WIyWlLk6GJQsqaUBKTNV-1">
          <mxGeometry x="270" y="340" width="60" height="30" as="geometry" />
        </mxCell>
        <mxCell id="F_HFYUeaaF8_5w_vxrB_-31" value="" style="endArrow=classic;html=1;rounded=0;exitX=0.5;exitY=1;exitDx=0;exitDy=0;" edge="1" parent="WIyWlLk6GJQsqaUBKTNV-1" source="jxzHC8kVpNvv-Q7-szGA-0">
          <mxGeometry width="50" height="50" relative="1" as="geometry">
            <mxPoint x="390" y="290" as="sourcePoint" />
            <mxPoint x="655" y="170" as="targetPoint" />
          </mxGeometry>
        </mxCell>
        <mxCell id="F_HFYUeaaF8_5w_vxrB_-38" value="" style="endArrow=classic;html=1;rounded=0;exitX=0.75;exitY=1;exitDx=0;exitDy=0;entryX=0.573;entryY=0.012;entryDx=0;entryDy=0;entryPerimeter=0;" edge="1" parent="WIyWlLk6GJQsqaUBKTNV-1">
          <mxGeometry width="50" height="50" relative="1" as="geometry">
            <mxPoint x="700" y="60" as="sourcePoint" />
            <mxPoint x="876.6799999999998" y="171.65599999999995" as="targetPoint" />
            <Array as="points">
              <mxPoint x="877" y="60" />
            </Array>
          </mxGeometry>
        </mxCell>
        <mxCell id="F_HFYUeaaF8_5w_vxrB_-40" value="macht" style="text;html=1;strokeColor=none;fillColor=none;align=center;verticalAlign=middle;whiteSpace=wrap;rounded=0;" vertex="1" parent="WIyWlLk6GJQsqaUBKTNV-1">
          <mxGeometry x="660" y="100" width="60" height="30" as="geometry" />
        </mxCell>
        <mxCell id="F_HFYUeaaF8_5w_vxrB_-41" value="macht" style="text;html=1;strokeColor=none;fillColor=none;align=center;verticalAlign=middle;whiteSpace=wrap;rounded=0;" vertex="1" parent="WIyWlLk6GJQsqaUBKTNV-1">
          <mxGeometry x="790" y="66" width="60" height="30" as="geometry" />
        </mxCell>
        <mxCell id="F_HFYUeaaF8_5w_vxrB_-42" value="*" style="text;html=1;strokeColor=none;fillColor=none;align=center;verticalAlign=middle;whiteSpace=wrap;rounded=0;" vertex="1" parent="WIyWlLk6GJQsqaUBKTNV-1">
          <mxGeometry x="590" y="66" width="60" height="30" as="geometry" />
        </mxCell>
        <mxCell id="F_HFYUeaaF8_5w_vxrB_-43" value="*" style="text;html=1;strokeColor=none;fillColor=none;align=center;verticalAlign=middle;whiteSpace=wrap;rounded=0;" vertex="1" parent="WIyWlLk6GJQsqaUBKTNV-1">
          <mxGeometry x="590" y="140" width="60" height="30" as="geometry" />
        </mxCell>
        <mxCell id="F_HFYUeaaF8_5w_vxrB_-44" value="*" style="text;html=1;strokeColor=none;fillColor=none;align=center;verticalAlign=middle;whiteSpace=wrap;rounded=0;" vertex="1" parent="WIyWlLk6GJQsqaUBKTNV-1">
          <mxGeometry x="735" y="30" width="60" height="30" as="geometry" />
        </mxCell>
        <mxCell id="F_HFYUeaaF8_5w_vxrB_-45" value="*" style="text;html=1;strokeColor=none;fillColor=none;align=center;verticalAlign=middle;whiteSpace=wrap;rounded=0;" vertex="1" parent="WIyWlLk6GJQsqaUBKTNV-1">
          <mxGeometry x="890" y="130" width="60" height="30" as="geometry" />
        </mxCell>
      </root>
    </mxGraphModel>
  </diagram>
</mxfile>
